# xmcd
#
# Track frame offsets:
# 150
# 18142
# 31843
# 54051
# 65445
# 81524
# 96297
# 109546
# 124934
# 138583
# 155854
# 167554
#
# Disc length: 2451 seconds
#
#
# Revision: 0
# Processed by: cddbd v1.5.2PL0 Copyright (c) Steve Scherf et al.
# Submitted via: FreeRIP 2.951 
#
DISCID=9709910c
DTITLE=Roland Hefter - I dad's macha
DYEAR=2015
DGENRE=Folklore
TTITLE0=I dad's macha
TTITLE1=Ganz normal
TTITLE2=A Weißbier in da Sun
TTITLE3=Des mach ma jetzt
TTITLE4=Des woas a Jeder
TTITLE5=An geilen Typ
TTITLE6=Von Herzen
TTITLE7=Du bist ned die Nr. 1
TTITLE8=Die Suacherei
TTITLE9=Oane für ois
TTITLE10=Urlaub auf da Wiesn
TTITLE11=Mindestens zwoa Leben
EXTD=
EXTT0=
EXTT1=
EXTT2=
EXTT3=
EXTT4=
EXTT5=
EXTT6=
EXTT7=
EXTT8=
EXTT9=
EXTT10=
EXTT11=
PLAYORDER=
